<mxfile host="Electron" modified="2024-03-25T21:24:43.676Z" agent="Mozilla/5.0 (Windows NT 10.0; Win64; x64) AppleWebKit/537.36 (KHTML, like Gecko) draw.io/24.1.0 Chrome/120.0.6099.109 Electron/28.1.0 Safari/537.36" etag="kyHGdCYqHVHvcel1QDyj" version="24.1.0" type="device">
  <diagram id="O3whct_VJJggGx5-_gyD" name="Page-1">
    <mxGraphModel dx="-870" dy="629" grid="1" gridSize="10" guides="1" tooltips="1" connect="1" arrows="1" fold="1" page="1" pageScale="1" pageWidth="1920" pageHeight="1200" math="0" shadow="0">
      <root>
        <mxCell id="0" />
        <mxCell id="1" parent="0" />
        <mxCell id="dDX4s_7uVApJEGBFn1xV-1" value="" style="rounded=0;whiteSpace=wrap;html=1;fontSize=22;fillColor=#f5f5f5;fontColor=#333333;strokeColor=#666666;direction=east;strokeWidth=2;fontStyle=1;" parent="1" vertex="1">
          <mxGeometry x="2570" y="110" width="2350" height="1360" as="geometry" />
        </mxCell>
        <mxCell id="dDX4s_7uVApJEGBFn1xV-207" value="" style="rounded=0;whiteSpace=wrap;html=1;strokeWidth=2;fontStyle=1;" parent="1" vertex="1">
          <mxGeometry x="2600" y="420" width="2290" height="300" as="geometry" />
        </mxCell>
        <mxCell id="dDX4s_7uVApJEGBFn1xV-2" value="&lt;span style=&quot;color: rgba(0 , 0 , 0 , 0) ; font-family: monospace ; font-size: 0px&quot;&gt;%3CmxGraphModel%3E%3Croot%3E%3CmxCell%20id%3D%220%22%2F%3E%3CmxCell%20id%3D%221%22%20parent%3D%220%22%2F%3E%3CmxCell%20id%3D%222%22%20value%3D%22%22%20style%3D%22rounded%3D0%3BwhiteSpace%3Dwrap%3Bhtml%3D1%3BstrokeWidth%3D2%3BfillColor%3D%23dae8fc%3BstrokeColor%3D%236c8ebf%3B%22%20vertex%3D%221%22%20parent%3D%221%22%3E%3CmxGeometry%20x%3D%22-120%22%20y%3D%22190%22%20width%3D%221920%22%20height%3D%22240%22%20as%3D%22geometry%22%2F%3E%3C%2FmxCell%3E%3C%2Froot%3E%3C%2FmxGraphModel%3E&lt;/span&gt;" style="rounded=0;whiteSpace=wrap;html=1;strokeWidth=2;" parent="1" vertex="1">
          <mxGeometry x="2600" y="170" width="2290" height="250" as="geometry" />
        </mxCell>
        <mxCell id="dDX4s_7uVApJEGBFn1xV-4" value="&lt;span style=&quot;color: rgba(0 , 0 , 0 , 0) ; font-family: monospace ; font-size: 0px&quot;&gt;%3CmxGraphModel%3E%3Croot%3E%3CmxCell%20id%3D%220%22%2F%3E%3CmxCell%20id%3D%221%22%20parent%3D%220%22%2F%3E%3CmxCell%20id%3D%222%22%20value%3D%22%22%20style%3D%22rounded%3D0%3BwhiteSpace%3Dwrap%3Bhtml%3D1%3BstrokeWidth%3D2%3BfillColor%3D%23dae8fc%3BstrokeColor%3D%236c8ebf%3B%22%20vertex%3D%221%22%20parent%3D%221%22%3E%3CmxGeometry%20x%3D%22-120%22%20y%3D%22190%22%20width%3D%221920%22%20height%3D%22240%22%20as%3D%22geometry%22%2F%3E%3C%2FmxCell%3E%3C%2Froot%3E%3C%2FmxGraphModel%3E&lt;/span&gt;" style="rounded=0;whiteSpace=wrap;html=1;strokeWidth=2;" parent="1" vertex="1">
          <mxGeometry x="2600" y="720" width="2290" height="560" as="geometry" />
        </mxCell>
        <mxCell id="dDX4s_7uVApJEGBFn1xV-6" style="edgeStyle=orthogonalEdgeStyle;rounded=0;orthogonalLoop=1;jettySize=auto;html=1;exitX=0.5;exitY=1;exitDx=0;exitDy=0;fontStyle=1;strokeWidth=2;strokeColor=#00CC00;" parent="1" source="dDX4s_7uVApJEGBFn1xV-7" target="dDX4s_7uVApJEGBFn1xV-9" edge="1">
          <mxGeometry relative="1" as="geometry" />
        </mxCell>
        <mxCell id="dDX4s_7uVApJEGBFn1xV-7" value="VISIT DID PORTAL" style="rounded=0;whiteSpace=wrap;html=1;fontStyle=1;strokeWidth=2;" parent="1" vertex="1">
          <mxGeometry x="2820" y="220" width="120" height="60" as="geometry" />
        </mxCell>
        <mxCell id="dDX4s_7uVApJEGBFn1xV-8" style="edgeStyle=orthogonalEdgeStyle;rounded=0;orthogonalLoop=1;jettySize=auto;html=1;exitX=1;exitY=0.5;exitDx=0;exitDy=0;entryX=0;entryY=0.5;entryDx=0;entryDy=0;fontStyle=1;strokeWidth=2;strokeColor=#00CC00;" parent="1" source="dDX4s_7uVApJEGBFn1xV-9" target="dDX4s_7uVApJEGBFn1xV-11" edge="1">
          <mxGeometry relative="1" as="geometry">
            <Array as="points">
              <mxPoint x="2970" y="335" />
              <mxPoint x="2970" y="250" />
            </Array>
          </mxGeometry>
        </mxCell>
        <mxCell id="dDX4s_7uVApJEGBFn1xV-9" value="CLICK USER LOGIN" style="rounded=0;whiteSpace=wrap;html=1;fontStyle=1;strokeWidth=2;" parent="1" vertex="1">
          <mxGeometry x="2820" y="305" width="120" height="60" as="geometry" />
        </mxCell>
        <mxCell id="dDX4s_7uVApJEGBFn1xV-11" value="LOGIN - PASS. AUTH.:&lt;br style=&quot;border-color: var(--border-color); font-size: 11px;&quot;&gt;&lt;u style=&quot;border-color: var(--border-color); font-size: 11px;&quot;&gt;AU.1.B&lt;/u&gt;" style="rounded=0;whiteSpace=wrap;html=1;fontStyle=1;strokeWidth=2;shape=label;fixedSize=1;" parent="1" vertex="1">
          <mxGeometry x="3000" y="220" width="120" height="60" as="geometry" />
        </mxCell>
        <mxCell id="dDX4s_7uVApJEGBFn1xV-12" style="edgeStyle=orthogonalEdgeStyle;rounded=0;orthogonalLoop=1;jettySize=auto;html=1;exitX=0.5;exitY=0;exitDx=0;exitDy=0;entryX=0.5;entryY=1;entryDx=0;entryDy=0;fontStyle=1;strokeWidth=2;strokeColor=#00CC00;" parent="1" source="dDX4s_7uVApJEGBFn1xV-13" target="dDX4s_7uVApJEGBFn1xV-14" edge="1">
          <mxGeometry relative="1" as="geometry" />
        </mxCell>
        <mxCell id="dDX4s_7uVApJEGBFn1xV-13" value="RECEIVE SUCCESSFUL LOGIN NOTIFICATION" style="rounded=0;whiteSpace=wrap;html=1;fontStyle=1;strokeWidth=2;" parent="1" vertex="1">
          <mxGeometry x="3290" y="302.5" width="120" height="67.5" as="geometry" />
        </mxCell>
        <mxCell id="dDX4s_7uVApJEGBFn1xV-210" value="" style="edgeStyle=orthogonalEdgeStyle;rounded=0;orthogonalLoop=1;jettySize=auto;html=1;strokeColor=#00CC00;fontStyle=1;strokeWidth=2;" parent="1" source="dDX4s_7uVApJEGBFn1xV-14" target="dDX4s_7uVApJEGBFn1xV-16" edge="1">
          <mxGeometry relative="1" as="geometry" />
        </mxCell>
        <mxCell id="dDX4s_7uVApJEGBFn1xV-14" value="NAVIGATE &lt;br&gt;&lt;u&gt;&lt;i&gt;SETTINGS -&amp;gt; SECURITY-&amp;gt;&lt;br&gt;&#39;MEMORABLE SECRET&#39;&lt;/i&gt;&lt;/u&gt;" style="rounded=0;whiteSpace=wrap;html=1;fontStyle=1;strokeWidth=2;" parent="1" vertex="1">
          <mxGeometry x="3270" y="200" width="160" height="60" as="geometry" />
        </mxCell>
        <mxCell id="dDX4s_7uVApJEGBFn1xV-94" style="edgeStyle=orthogonalEdgeStyle;rounded=0;orthogonalLoop=1;jettySize=auto;html=1;exitX=0.5;exitY=1;exitDx=0;exitDy=0;entryX=0.5;entryY=0;entryDx=0;entryDy=0;strokeColor=#00CC00;fontStyle=1;strokeWidth=2;" parent="1" source="dDX4s_7uVApJEGBFn1xV-16" target="dDX4s_7uVApJEGBFn1xV-212" edge="1">
          <mxGeometry relative="1" as="geometry" />
        </mxCell>
        <mxCell id="dDX4s_7uVApJEGBFn1xV-16" value="CLICK CONFIGURE MEMORABLE SECRET" style="rounded=0;whiteSpace=wrap;html=1;fontStyle=1;strokeWidth=2;" parent="1" vertex="1">
          <mxGeometry x="3440" y="306.25" width="120" height="60" as="geometry" />
        </mxCell>
        <mxCell id="dDX4s_7uVApJEGBFn1xV-221" style="edgeStyle=orthogonalEdgeStyle;rounded=0;orthogonalLoop=1;jettySize=auto;html=1;exitX=0.5;exitY=1;exitDx=0;exitDy=0;entryX=0.5;entryY=0;entryDx=0;entryDy=0;strokeColor=#00CC00;fontStyle=1;strokeWidth=2;" parent="1" source="dDX4s_7uVApJEGBFn1xV-18" target="dDX4s_7uVApJEGBFn1xV-216" edge="1">
          <mxGeometry relative="1" as="geometry" />
        </mxCell>
        <mxCell id="dDX4s_7uVApJEGBFn1xV-18" value="AUTHENTICATE USING PASSWORD:&lt;br&gt;&lt;u&gt;AU.1.B&lt;/u&gt;" style="rounded=0;whiteSpace=wrap;html=1;fontStyle=1;strokeWidth=2;shape=label;fixedSize=1;" parent="1" vertex="1">
          <mxGeometry x="3608" y="213.76" width="122" height="60" as="geometry" />
        </mxCell>
        <mxCell id="dDX4s_7uVApJEGBFn1xV-19" style="edgeStyle=orthogonalEdgeStyle;rounded=0;orthogonalLoop=1;jettySize=auto;html=1;exitX=1;exitY=0.5;exitDx=0;exitDy=0;fontStyle=1;strokeWidth=2;strokeColor=#00CC00;entryX=0.5;entryY=0;entryDx=0;entryDy=0;" parent="1" source="dDX4s_7uVApJEGBFn1xV-20" target="dDX4s_7uVApJEGBFn1xV-48" edge="1">
          <mxGeometry relative="1" as="geometry">
            <mxPoint x="4722.999999999999" y="975.08" as="targetPoint" />
            <Array as="points">
              <mxPoint x="3889" y="326" />
              <mxPoint x="4021" y="326" />
            </Array>
          </mxGeometry>
        </mxCell>
        <mxCell id="dDX4s_7uVApJEGBFn1xV-20" value="ENTERS NEW MEMORABLE SECRET WITH SPECIFIED CRITERIA*" style="rounded=0;whiteSpace=wrap;html=1;fontStyle=1;strokeWidth=2;shape=parallelogram;perimeter=parallelogramPerimeter;fixedSize=1;" parent="1" vertex="1">
          <mxGeometry x="3741.5" y="290" width="157" height="75" as="geometry" />
        </mxCell>
        <mxCell id="dDX4s_7uVApJEGBFn1xV-256" style="edgeStyle=orthogonalEdgeStyle;rounded=0;orthogonalLoop=1;jettySize=auto;html=1;exitX=1;exitY=0.5;exitDx=0;exitDy=0;entryX=0.5;entryY=0;entryDx=0;entryDy=0;entryPerimeter=0;strokeColor=#00CC00;fontStyle=1;strokeWidth=2;" parent="1" source="dDX4s_7uVApJEGBFn1xV-21" target="dDX4s_7uVApJEGBFn1xV-253" edge="1">
          <mxGeometry relative="1" as="geometry" />
        </mxCell>
        <mxCell id="dDX4s_7uVApJEGBFn1xV-21" value="RECEIVES MEMORABLE SECRET CREATION FAILURE NOTIFICATION ON EMAIL/PHONE" style="rounded=0;whiteSpace=wrap;html=1;fontStyle=1;strokeWidth=2;" parent="1" vertex="1">
          <mxGeometry x="4552.5" y="235" width="150" height="75" as="geometry" />
        </mxCell>
        <mxCell id="dDX4s_7uVApJEGBFn1xV-27" value="CLAIMANT/&lt;br&gt;SUBSCRIBER" style="text;html=1;align=center;verticalAlign=middle;resizable=0;points=[];autosize=1;strokeColor=none;fillColor=none;fontStyle=1;strokeWidth=2;fontSize=23;horizontal=0;" parent="1" vertex="1">
          <mxGeometry x="2600" y="200" width="80" height="170" as="geometry" />
        </mxCell>
        <mxCell id="dDX4s_7uVApJEGBFn1xV-31" value="PRIVATE NETWORK&lt;br&gt;SYSTEMS (SERVER)" style="text;html=1;align=center;verticalAlign=middle;resizable=0;points=[];autosize=1;strokeColor=none;fillColor=none;fontStyle=1;strokeWidth=2;fontSize=23;horizontal=0;" parent="1" vertex="1">
          <mxGeometry x="2600" y="880" width="80" height="240" as="geometry" />
        </mxCell>
        <mxCell id="dDX4s_7uVApJEGBFn1xV-99" style="edgeStyle=orthogonalEdgeStyle;rounded=0;orthogonalLoop=1;jettySize=auto;html=1;exitX=0.5;exitY=1;exitDx=0;exitDy=0;entryX=0;entryY=0.5;entryDx=0;entryDy=0;strokeColor=#FF0000;fontStyle=1;strokeWidth=2;entryPerimeter=0;" parent="1" source="dDX4s_7uVApJEGBFn1xV-35" target="dDX4s_7uVApJEGBFn1xV-257" edge="1">
          <mxGeometry relative="1" as="geometry">
            <Array as="points">
              <mxPoint x="3060" y="1197" />
            </Array>
          </mxGeometry>
        </mxCell>
        <mxCell id="dDX4s_7uVApJEGBFn1xV-35" value="IF PASS. AUTH. SUCCESS" style="rounded=0;whiteSpace=wrap;html=1;fontStyle=1;strokeWidth=2;shape=rhombus;perimeter=rhombusPerimeter;" parent="1" vertex="1">
          <mxGeometry x="3000" y="850" width="120" height="100" as="geometry" />
        </mxCell>
        <mxCell id="dDX4s_7uVApJEGBFn1xV-262" style="edgeStyle=orthogonalEdgeStyle;rounded=0;orthogonalLoop=1;jettySize=auto;html=1;exitX=0.5;exitY=1;exitDx=0;exitDy=0;entryX=0;entryY=0.5;entryDx=0;entryDy=0;entryPerimeter=0;strokeColor=#FF0000;fontStyle=1;strokeWidth=2;" parent="1" source="dDX4s_7uVApJEGBFn1xV-38" target="dDX4s_7uVApJEGBFn1xV-257" edge="1">
          <mxGeometry relative="1" as="geometry">
            <Array as="points">
              <mxPoint x="4188" y="1197" />
              <mxPoint x="4378" y="1197" />
            </Array>
          </mxGeometry>
        </mxCell>
        <mxCell id="dDX4s_7uVApJEGBFn1xV-38" value="IF &lt;br&gt;RETRY COUNT &lt;br&gt;&amp;lt;=3" style="rounded=0;whiteSpace=wrap;html=1;fontStyle=1;strokeWidth=2;shape=rhombus;perimeter=rhombusPerimeter;" parent="1" vertex="1">
          <mxGeometry x="3973.5" y="1110.25" width="95" height="75.75" as="geometry" />
        </mxCell>
        <mxCell id="dDX4s_7uVApJEGBFn1xV-43" style="edgeStyle=orthogonalEdgeStyle;rounded=0;orthogonalLoop=1;jettySize=auto;html=1;exitX=0.5;exitY=0;exitDx=0;exitDy=0;fontStyle=1;strokeWidth=2;strokeColor=#00CC00;" parent="1" source="dDX4s_7uVApJEGBFn1xV-44" target="dDX4s_7uVApJEGBFn1xV-20" edge="1">
          <mxGeometry relative="1" as="geometry" />
        </mxCell>
        <mxCell id="dDX4s_7uVApJEGBFn1xV-225" style="edgeStyle=orthogonalEdgeStyle;rounded=0;orthogonalLoop=1;jettySize=auto;html=1;exitX=0;exitY=0.5;exitDx=0;exitDy=0;strokeColor=#FF0000;fontStyle=1;strokeWidth=2;entryX=0.75;entryY=1;entryDx=0;entryDy=0;" parent="1" source="dDX4s_7uVApJEGBFn1xV-48" target="dDX4s_7uVApJEGBFn1xV-20" edge="1">
          <mxGeometry relative="1" as="geometry">
            <Array as="points">
              <mxPoint x="3859" y="534" />
            </Array>
          </mxGeometry>
        </mxCell>
        <mxCell id="AR_CazgQhvr1JdZTIASA-8" style="edgeStyle=orthogonalEdgeStyle;rounded=0;orthogonalLoop=1;jettySize=auto;html=1;exitX=0.5;exitY=1;exitDx=0;exitDy=0;entryX=0.5;entryY=0;entryDx=0;entryDy=0;strokeColor=#00CC00;fontStyle=1;strokeWidth=2;" parent="1" source="dDX4s_7uVApJEGBFn1xV-48" target="AR_CazgQhvr1JdZTIASA-6" edge="1">
          <mxGeometry relative="1" as="geometry" />
        </mxCell>
        <mxCell id="dDX4s_7uVApJEGBFn1xV-48" value="IF &lt;br&gt;MEMORABLE &lt;br&gt;SECRET INPUT &lt;br&gt;VALID" style="rounded=0;whiteSpace=wrap;html=1;fontStyle=1;strokeWidth=2;shape=rhombus;perimeter=rhombusPerimeter;" parent="1" vertex="1">
          <mxGeometry x="3965.5" y="492.16" width="110" height="83.92" as="geometry" />
        </mxCell>
        <mxCell id="dDX4s_7uVApJEGBFn1xV-101" style="edgeStyle=orthogonalEdgeStyle;rounded=0;orthogonalLoop=1;jettySize=auto;html=1;exitX=1;exitY=0.5;exitDx=0;exitDy=0;strokeColor=#00CC00;fontStyle=1;strokeWidth=2;entryX=0.5;entryY=1;entryDx=0;entryDy=0;" parent="1" source="dDX4s_7uVApJEGBFn1xV-35" target="tqsLIWrqmnTAexxu9vTC-3" edge="1">
          <mxGeometry relative="1" as="geometry">
            <mxPoint x="3120" y="992.75" as="sourcePoint" />
          </mxGeometry>
        </mxCell>
        <mxCell id="dDX4s_7uVApJEGBFn1xV-64" style="edgeStyle=orthogonalEdgeStyle;rounded=0;orthogonalLoop=1;jettySize=auto;html=1;exitX=0.5;exitY=0;exitDx=0;exitDy=0;entryX=0.5;entryY=1;entryDx=0;entryDy=0;fontStyle=1;strokeWidth=2;strokeColor=#00CC00;exitPerimeter=0;fillColor=default;" parent="1" source="dDX4s_7uVApJEGBFn1xV-257" target="dDX4s_7uVApJEGBFn1xV-21" edge="1">
          <mxGeometry relative="1" as="geometry">
            <mxPoint x="4763" y="953.0799999999999" as="sourcePoint" />
          </mxGeometry>
        </mxCell>
        <mxCell id="tqsLIWrqmnTAexxu9vTC-15" style="edgeStyle=orthogonalEdgeStyle;rounded=0;orthogonalLoop=1;jettySize=auto;html=1;exitX=1;exitY=0.5;exitDx=0;exitDy=0;exitPerimeter=0;entryX=0.5;entryY=1;entryDx=0;entryDy=0;strokeColor=#00CC00;fontStyle=1;strokeWidth=2;" parent="1" source="dDX4s_7uVApJEGBFn1xV-65" target="dDX4s_7uVApJEGBFn1xV-249" edge="1">
          <mxGeometry relative="1" as="geometry" />
        </mxCell>
        <mxCell id="dDX4s_7uVApJEGBFn1xV-65" value="STORE MEMORABLE SECRET IN UIN ACCOUNT WITH ENCRYPTION AND HASHING" style="rounded=0;whiteSpace=wrap;html=1;fontStyle=1;strokeWidth=2;" parent="1" vertex="1">
          <mxGeometry x="4270" y="970" width="120" height="80" as="geometry" />
        </mxCell>
        <mxCell id="dDX4s_7uVApJEGBFn1xV-67" value="AU.1" style="text;html=1;align=center;verticalAlign=middle;resizable=0;points=[];autosize=1;strokeColor=none;fillColor=none;fontSize=26;fontStyle=1" parent="1" vertex="1">
          <mxGeometry x="3825" y="125" width="80" height="40" as="geometry" />
        </mxCell>
        <mxCell id="dDX4s_7uVApJEGBFn1xV-68" value="CREATION OF MEMORABLE SECRET" style="text;html=1;align=center;verticalAlign=middle;resizable=0;points=[];autosize=1;strokeColor=none;fillColor=none;fontSize=26;fontStyle=1" parent="1" vertex="1">
          <mxGeometry x="4400" y="125" width="490" height="40" as="geometry" />
        </mxCell>
        <mxCell id="dDX4s_7uVApJEGBFn1xV-69" value="C" style="ellipse;whiteSpace=wrap;html=1;aspect=fixed;fontSize=26;strokeWidth=2;fontStyle=1" parent="1" vertex="1">
          <mxGeometry x="2600" y="120" width="40" height="40" as="geometry" />
        </mxCell>
        <mxCell id="dDX4s_7uVApJEGBFn1xV-92" value="" style="edgeStyle=orthogonalEdgeStyle;rounded=0;orthogonalLoop=1;jettySize=auto;html=1;strokeColor=#00CC00;fontStyle=1;strokeWidth=2;" parent="1" source="dDX4s_7uVApJEGBFn1xV-91" target="dDX4s_7uVApJEGBFn1xV-7" edge="1">
          <mxGeometry relative="1" as="geometry" />
        </mxCell>
        <mxCell id="dDX4s_7uVApJEGBFn1xV-91" value="&lt;b style=&quot;font-size: 11px;&quot;&gt;START&lt;br&gt;(ONLINE)&lt;br&gt;&lt;/b&gt;" style="strokeWidth=2;html=1;shape=mxgraph.flowchart.terminator;whiteSpace=wrap;fillColor=#d5e8d4;strokeColor=#82b366;fontSize=11;" parent="1" vertex="1">
          <mxGeometry x="2680" y="230" width="100" height="40" as="geometry" />
        </mxCell>
        <mxCell id="dDX4s_7uVApJEGBFn1xV-98" value="AC" style="ellipse;whiteSpace=wrap;html=1;fillColor=#dae8fc;strokeColor=#6c8ebf;gradientColor=#7ea6e0;fontStyle=1" parent="1" vertex="1">
          <mxGeometry x="3015" y="850.08" width="30" height="26" as="geometry" />
        </mxCell>
        <mxCell id="dDX4s_7uVApJEGBFn1xV-208" value="PUBLIC NETWORK &lt;br&gt;SYSTEMS (CLIENT)" style="text;html=1;align=center;verticalAlign=middle;resizable=0;points=[];autosize=1;strokeColor=none;fillColor=none;fontStyle=1;fontSize=23;strokeWidth=2;horizontal=0;" parent="1" vertex="1">
          <mxGeometry x="2600" y="462" width="80" height="230" as="geometry" />
        </mxCell>
        <mxCell id="dDX4s_7uVApJEGBFn1xV-44" value="PROMPT TO CREATE NEW MEMORABLE SECRET" style="rounded=0;whiteSpace=wrap;html=1;fontStyle=1;strokeWidth=2;" parent="1" vertex="1">
          <mxGeometry x="3760" y="848.08" width="120" height="60" as="geometry" />
        </mxCell>
        <mxCell id="dDX4s_7uVApJEGBFn1xV-213" value="" style="edgeStyle=orthogonalEdgeStyle;rounded=0;orthogonalLoop=1;jettySize=auto;html=1;exitX=1;exitY=0.5;exitDx=0;exitDy=0;entryX=0;entryY=0.5;entryDx=0;entryDy=0;strokeColor=#00CC00;fontStyle=1;strokeWidth=2;" parent="1" source="dDX4s_7uVApJEGBFn1xV-212" target="dDX4s_7uVApJEGBFn1xV-18" edge="1">
          <mxGeometry relative="1" as="geometry">
            <Array as="points">
              <mxPoint x="3570" y="890" />
              <mxPoint x="3570" y="244" />
              <mxPoint x="3590" y="244" />
            </Array>
          </mxGeometry>
        </mxCell>
        <mxCell id="dDX4s_7uVApJEGBFn1xV-212" value="REQUEST PASS. AUTH." style="rounded=0;whiteSpace=wrap;html=1;fontStyle=1;strokeWidth=2;" parent="1" vertex="1">
          <mxGeometry x="3440" y="861.38" width="120" height="60" as="geometry" />
        </mxCell>
        <mxCell id="dDX4s_7uVApJEGBFn1xV-215" style="edgeStyle=orthogonalEdgeStyle;rounded=0;orthogonalLoop=1;jettySize=auto;html=1;exitX=0.5;exitY=1;exitDx=0;exitDy=0;strokeColor=#FF0000;fontStyle=1;strokeWidth=2;entryX=0;entryY=0.5;entryDx=0;entryDy=0;entryPerimeter=0;" parent="1" source="dDX4s_7uVApJEGBFn1xV-216" target="dDX4s_7uVApJEGBFn1xV-257" edge="1">
          <mxGeometry relative="1" as="geometry">
            <Array as="points">
              <mxPoint x="3669" y="1010" />
              <mxPoint x="3670" y="1256" />
            </Array>
          </mxGeometry>
        </mxCell>
        <mxCell id="dDX4s_7uVApJEGBFn1xV-216" value="IF PASS. AUTH. SUCCESS" style="rounded=0;whiteSpace=wrap;html=1;fontStyle=1;strokeWidth=2;shape=rhombus;perimeter=rhombusPerimeter;" parent="1" vertex="1">
          <mxGeometry x="3609" y="830" width="120" height="100" as="geometry" />
        </mxCell>
        <mxCell id="dDX4s_7uVApJEGBFn1xV-223" style="edgeStyle=orthogonalEdgeStyle;rounded=0;orthogonalLoop=1;jettySize=auto;html=1;exitX=1;exitY=0.5;exitDx=0;exitDy=0;strokeColor=#00CC00;fontStyle=1;strokeWidth=2;" parent="1" source="dDX4s_7uVApJEGBFn1xV-216" target="dDX4s_7uVApJEGBFn1xV-44" edge="1">
          <mxGeometry relative="1" as="geometry">
            <Array as="points">
              <mxPoint x="3780" y="880" />
              <mxPoint x="3780" y="867" />
            </Array>
            <mxPoint x="3883" y="1064" as="sourcePoint" />
            <mxPoint x="4318" y="976.75" as="targetPoint" />
          </mxGeometry>
        </mxCell>
        <mxCell id="dDX4s_7uVApJEGBFn1xV-220" value="AC" style="ellipse;whiteSpace=wrap;html=1;fillColor=#dae8fc;strokeColor=#6c8ebf;gradientColor=#7ea6e0;fontStyle=1" parent="1" vertex="1">
          <mxGeometry x="3621" y="830" width="30" height="26" as="geometry" />
        </mxCell>
        <mxCell id="dDX4s_7uVApJEGBFn1xV-226" style="edgeStyle=orthogonalEdgeStyle;rounded=0;orthogonalLoop=1;jettySize=auto;html=1;exitX=1;exitY=0.5;exitDx=0;exitDy=0;entryX=0.5;entryY=1;entryDx=0;entryDy=0;strokeColor=#00CC00;fontStyle=1;strokeWidth=2;" parent="1" source="dDX4s_7uVApJEGBFn1xV-38" target="AR_CazgQhvr1JdZTIASA-1" edge="1">
          <mxGeometry relative="1" as="geometry">
            <Array as="points">
              <mxPoint x="4100" y="1148" />
            </Array>
          </mxGeometry>
        </mxCell>
        <mxCell id="tqsLIWrqmnTAexxu9vTC-6" style="edgeStyle=orthogonalEdgeStyle;rounded=0;orthogonalLoop=1;jettySize=auto;html=1;exitX=0.5;exitY=1;exitDx=0;exitDy=0;entryX=0;entryY=0.5;entryDx=0;entryDy=0;strokeColor=#FF0000;fontStyle=1;strokeWidth=2;entryPerimeter=0;" parent="1" source="dDX4s_7uVApJEGBFn1xV-229" target="dDX4s_7uVApJEGBFn1xV-257" edge="1">
          <mxGeometry relative="1" as="geometry">
            <Array as="points">
              <mxPoint x="3260" y="1197" />
            </Array>
          </mxGeometry>
        </mxCell>
        <mxCell id="tqsLIWrqmnTAexxu9vTC-8" style="edgeStyle=orthogonalEdgeStyle;rounded=0;orthogonalLoop=1;jettySize=auto;html=1;exitX=1;exitY=0.5;exitDx=0;exitDy=0;entryX=0.5;entryY=1;entryDx=0;entryDy=0;strokeColor=#00CC00;fontStyle=1;strokeWidth=2;" parent="1" source="dDX4s_7uVApJEGBFn1xV-229" target="dDX4s_7uVApJEGBFn1xV-13" edge="1">
          <mxGeometry relative="1" as="geometry" />
        </mxCell>
        <mxCell id="dDX4s_7uVApJEGBFn1xV-229" value="IF&lt;br style=&quot;border-color: var(--border-color);&quot;&gt;2FA&lt;br style=&quot;border-color: var(--border-color);&quot;&gt;SUCCESS" style="rhombus;whiteSpace=wrap;html=1;fontStyle=1;strokeWidth=2;fontSize=11;" parent="1" vertex="1">
          <mxGeometry x="3210" y="852.75" width="100" height="77.25" as="geometry" />
        </mxCell>
        <mxCell id="tqsLIWrqmnTAexxu9vTC-17" style="edgeStyle=orthogonalEdgeStyle;rounded=0;orthogonalLoop=1;jettySize=auto;html=1;exitX=0.5;exitY=0;exitDx=0;exitDy=0;fontSize=11;fillColor=default;fontStyle=1;strokeWidth=2;strokeColor=#00CC00;" parent="1" source="dDX4s_7uVApJEGBFn1xV-249" target="dDX4s_7uVApJEGBFn1xV-253" edge="1">
          <mxGeometry relative="1" as="geometry" />
        </mxCell>
        <mxCell id="dDX4s_7uVApJEGBFn1xV-249" value="RECEIVES MEMORABLE SECRET CREATION SUCCESS&lt;br&gt;NOTIFICATION ON EMAIL/PHONE" style="rounded=0;whiteSpace=wrap;html=1;fontStyle=1;strokeWidth=2;" parent="1" vertex="1">
          <mxGeometry x="4350" y="235" width="150" height="75" as="geometry" />
        </mxCell>
        <mxCell id="dDX4s_7uVApJEGBFn1xV-252" value="" style="edgeStyle=orthogonalEdgeStyle;rounded=0;orthogonalLoop=1;jettySize=auto;html=1;strokeColor=#00CC00;fontStyle=1;strokeWidth=2;" parent="1" source="dDX4s_7uVApJEGBFn1xV-253" target="dDX4s_7uVApJEGBFn1xV-254" edge="1">
          <mxGeometry relative="1" as="geometry" />
        </mxCell>
        <mxCell id="dDX4s_7uVApJEGBFn1xV-253" value="LOGS THE PROCESS AND STATUS" style="rounded=0;whiteSpace=wrap;html=1;fontStyle=1;strokeWidth=2;" parent="1" vertex="1">
          <mxGeometry x="4720" y="960" width="120" height="58.08" as="geometry" />
        </mxCell>
        <mxCell id="dDX4s_7uVApJEGBFn1xV-254" value="&lt;b&gt;END&lt;/b&gt;" style="strokeWidth=2;html=1;shape=mxgraph.flowchart.terminator;whiteSpace=wrap;fillColor=#f8cecc;strokeColor=#b85450;" parent="1" vertex="1">
          <mxGeometry x="4730" y="1047.08" width="100" height="40" as="geometry" />
        </mxCell>
        <mxCell id="dDX4s_7uVApJEGBFn1xV-255" value="IDA" style="ellipse;whiteSpace=wrap;html=1;fillColor=#dae8fc;strokeColor=#6c8ebf;gradientColor=#7ea6e0;fontStyle=1" parent="1" vertex="1">
          <mxGeometry x="4720" y="934" width="30" height="26" as="geometry" />
        </mxCell>
        <mxCell id="dDX4s_7uVApJEGBFn1xV-257" value="&lt;span style=&quot;border-color: var(--border-color);&quot;&gt;&lt;b&gt;TERMINATE PROCESS:&lt;/b&gt;&lt;br&gt;LOCK UIN ACCOUNT FOR 24 HOURS&lt;br&gt;&lt;/span&gt;" style="strokeWidth=2;html=1;shape=mxgraph.flowchart.terminator;whiteSpace=wrap;fillColor=#f8cecc;strokeColor=#b85450;" parent="1" vertex="1">
          <mxGeometry x="4520" y="1172" width="222.5" height="49" as="geometry" />
        </mxCell>
        <mxCell id="dDX4s_7uVApJEGBFn1xV-258" value="KR" style="ellipse;whiteSpace=wrap;html=1;fillColor=#dae8fc;strokeColor=#6c8ebf;gradientColor=#7ea6e0;fontStyle=1" parent="1" vertex="1">
          <mxGeometry x="4520" y="1160" width="30" height="26" as="geometry" />
        </mxCell>
        <mxCell id="dDX4s_7uVApJEGBFn1xV-275" value="HSM" style="ellipse;whiteSpace=wrap;html=1;fillColor=#dae8fc;strokeColor=#6c8ebf;gradientColor=#7ea6e0;fontStyle=1" parent="1" vertex="1">
          <mxGeometry x="4240" y="1021.08" width="30" height="26" as="geometry" />
        </mxCell>
        <mxCell id="dDX4s_7uVApJEGBFn1xV-276" value="KM" style="ellipse;whiteSpace=wrap;html=1;fillColor=#dae8fc;strokeColor=#6c8ebf;gradientColor=#7ea6e0;fontStyle=1" parent="1" vertex="1">
          <mxGeometry x="4240" y="970" width="30" height="26" as="geometry" />
        </mxCell>
        <mxCell id="Zl2qFdGlKUmVQ_tUsNpZ-4" value="NOTIFICATION GENERATOR" style="rounded=0;whiteSpace=wrap;html=1;fontStyle=1;strokeWidth=2;fontSize=11;fillColor=default;strokeColor=default;" parent="1" vertex="1">
          <mxGeometry x="4080" y="770" width="590" height="37" as="geometry" />
        </mxCell>
        <mxCell id="Zl2qFdGlKUmVQ_tUsNpZ-8" value="&lt;font style=&quot;font-size: 14px;&quot;&gt;PUBLIC NETWORK&lt;/font&gt;" style="swimlane;whiteSpace=wrap;html=1;" parent="1" vertex="1">
          <mxGeometry x="4920" y="465" width="200" height="167" as="geometry" />
        </mxCell>
        <mxCell id="Zl2qFdGlKUmVQ_tUsNpZ-9" value="DNS SERVERS" style="text;html=1;strokeColor=none;fillColor=none;align=center;verticalAlign=middle;whiteSpace=wrap;rounded=0;fontSize=14;" parent="Zl2qFdGlKUmVQ_tUsNpZ-8" vertex="1">
          <mxGeometry y="27" width="200" height="28" as="geometry" />
        </mxCell>
        <mxCell id="Zl2qFdGlKUmVQ_tUsNpZ-10" value="FTP SERVERS" style="text;html=1;strokeColor=none;fillColor=none;align=center;verticalAlign=middle;whiteSpace=wrap;rounded=0;fontSize=14;" parent="Zl2qFdGlKUmVQ_tUsNpZ-8" vertex="1">
          <mxGeometry y="55" width="200" height="28" as="geometry" />
        </mxCell>
        <mxCell id="Zl2qFdGlKUmVQ_tUsNpZ-11" value="MAIL SERVERS" style="text;html=1;strokeColor=none;fillColor=none;align=center;verticalAlign=middle;whiteSpace=wrap;rounded=0;fontSize=14;" parent="Zl2qFdGlKUmVQ_tUsNpZ-8" vertex="1">
          <mxGeometry y="83" width="200" height="28" as="geometry" />
        </mxCell>
        <mxCell id="Zl2qFdGlKUmVQ_tUsNpZ-12" value="PROXY SERVERS" style="text;html=1;strokeColor=none;fillColor=none;align=center;verticalAlign=middle;whiteSpace=wrap;rounded=0;fontSize=14;" parent="Zl2qFdGlKUmVQ_tUsNpZ-8" vertex="1">
          <mxGeometry y="111" width="200" height="28" as="geometry" />
        </mxCell>
        <mxCell id="Zl2qFdGlKUmVQ_tUsNpZ-13" value="WEB SERVERS" style="text;html=1;strokeColor=none;fillColor=none;align=center;verticalAlign=middle;whiteSpace=wrap;rounded=0;fontSize=14;" parent="Zl2qFdGlKUmVQ_tUsNpZ-8" vertex="1">
          <mxGeometry y="139" width="200" height="28" as="geometry" />
        </mxCell>
        <mxCell id="NUw1gPwO0yMVs_TfgDmj-3" value="" style="edgeStyle=orthogonalEdgeStyle;rounded=0;orthogonalLoop=1;jettySize=auto;html=1;exitX=0.5;exitY=1;exitDx=0;exitDy=0;fontStyle=1;strokeWidth=2;strokeColor=#00CC00;" parent="1" source="dDX4s_7uVApJEGBFn1xV-11" target="dDX4s_7uVApJEGBFn1xV-35" edge="1">
          <mxGeometry relative="1" as="geometry">
            <Array as="points" />
            <mxPoint x="3060" y="280" as="sourcePoint" />
            <mxPoint x="3060" y="563" as="targetPoint" />
          </mxGeometry>
        </mxCell>
        <mxCell id="4kefHeuUkW_7r6SL0RT1-4" value="USER" style="shape=umlActor;verticalLabelPosition=bottom;verticalAlign=top;html=1;outlineConnect=0;fontStyle=1" parent="1" vertex="1">
          <mxGeometry x="2690" y="278.75" width="30" height="60" as="geometry" />
        </mxCell>
        <mxCell id="zTX8te0ec-joT70KX_3f-4" value="&lt;font style=&quot;font-size: 14px;&quot;&gt;LEGEND&lt;/font&gt;" style="swimlane;whiteSpace=wrap;html=1;" parent="1" vertex="1">
          <mxGeometry x="4920" y="114" width="200" height="230" as="geometry" />
        </mxCell>
        <mxCell id="zTX8te0ec-joT70KX_3f-5" value="KM" style="ellipse;whiteSpace=wrap;html=1;fillColor=#dae8fc;strokeColor=#6c8ebf;gradientColor=#7ea6e0;fontStyle=1" parent="zTX8te0ec-joT70KX_3f-4" vertex="1">
          <mxGeometry x="10" y="30" width="30" height="26" as="geometry" />
        </mxCell>
        <mxCell id="zTX8te0ec-joT70KX_3f-6" value="IDA" style="ellipse;whiteSpace=wrap;html=1;fillColor=#dae8fc;strokeColor=#6c8ebf;gradientColor=#7ea6e0;fontStyle=1" parent="zTX8te0ec-joT70KX_3f-4" vertex="1">
          <mxGeometry x="10" y="131" width="30" height="26" as="geometry" />
        </mxCell>
        <mxCell id="zTX8te0ec-joT70KX_3f-7" value="HSM" style="ellipse;whiteSpace=wrap;html=1;fillColor=#dae8fc;strokeColor=#6c8ebf;gradientColor=#7ea6e0;fontStyle=1" parent="zTX8te0ec-joT70KX_3f-4" vertex="1">
          <mxGeometry x="10" y="91" width="30" height="26" as="geometry" />
        </mxCell>
        <mxCell id="zTX8te0ec-joT70KX_3f-8" value="KR" style="ellipse;whiteSpace=wrap;html=1;fillColor=#dae8fc;strokeColor=#6c8ebf;gradientColor=#7ea6e0;fontStyle=1" parent="zTX8te0ec-joT70KX_3f-4" vertex="1">
          <mxGeometry x="10" y="59" width="30" height="26" as="geometry" />
        </mxCell>
        <mxCell id="zTX8te0ec-joT70KX_3f-9" value="Key Manager" style="text;html=1;strokeColor=none;fillColor=none;align=center;verticalAlign=middle;whiteSpace=wrap;rounded=0;fontSize=14;" parent="zTX8te0ec-joT70KX_3f-4" vertex="1">
          <mxGeometry x="40" y="30" width="160" height="28" as="geometry" />
        </mxCell>
        <mxCell id="zTX8te0ec-joT70KX_3f-10" value="Key Revocation" style="text;html=1;strokeColor=none;fillColor=none;align=center;verticalAlign=middle;whiteSpace=wrap;rounded=0;fontSize=14;" parent="zTX8te0ec-joT70KX_3f-4" vertex="1">
          <mxGeometry x="40" y="58" width="160" height="28" as="geometry" />
        </mxCell>
        <mxCell id="zTX8te0ec-joT70KX_3f-11" value="Hardware Security Module" style="text;html=1;strokeColor=none;fillColor=none;align=center;verticalAlign=middle;whiteSpace=wrap;rounded=0;fontSize=14;" parent="zTX8te0ec-joT70KX_3f-4" vertex="1">
          <mxGeometry x="40" y="90" width="160" height="28" as="geometry" />
        </mxCell>
        <mxCell id="zTX8te0ec-joT70KX_3f-12" value="ID Authentication (DB)" style="text;html=1;strokeColor=none;fillColor=none;align=center;verticalAlign=middle;whiteSpace=wrap;rounded=0;fontSize=14;" parent="zTX8te0ec-joT70KX_3f-4" vertex="1">
          <mxGeometry x="40" y="130" width="160" height="28" as="geometry" />
        </mxCell>
        <mxCell id="zTX8te0ec-joT70KX_3f-13" value="AC" style="ellipse;whiteSpace=wrap;html=1;fillColor=#dae8fc;strokeColor=#6c8ebf;gradientColor=#7ea6e0;fontStyle=1" parent="zTX8te0ec-joT70KX_3f-4" vertex="1">
          <mxGeometry x="10" y="161" width="30" height="26" as="geometry" />
        </mxCell>
        <mxCell id="zTX8te0ec-joT70KX_3f-14" value="Access Control" style="text;html=1;strokeColor=none;fillColor=none;align=center;verticalAlign=middle;whiteSpace=wrap;rounded=0;fontSize=14;" parent="zTX8te0ec-joT70KX_3f-4" vertex="1">
          <mxGeometry x="40" y="160" width="160" height="28" as="geometry" />
        </mxCell>
        <mxCell id="zTX8te0ec-joT70KX_3f-15" value="Certificate Authority" style="text;html=1;strokeColor=none;fillColor=none;align=center;verticalAlign=middle;whiteSpace=wrap;rounded=0;fontSize=14;" parent="zTX8te0ec-joT70KX_3f-4" vertex="1">
          <mxGeometry x="40" y="190" width="160" height="28" as="geometry" />
        </mxCell>
        <mxCell id="zTX8te0ec-joT70KX_3f-16" value="CA" style="ellipse;whiteSpace=wrap;html=1;fillColor=#dae8fc;strokeColor=#6c8ebf;gradientColor=#7ea6e0;fontStyle=1" parent="zTX8te0ec-joT70KX_3f-4" vertex="1">
          <mxGeometry x="10" y="191" width="30" height="26" as="geometry" />
        </mxCell>
        <mxCell id="MJi_Pn9U09WmHoltyLiQ-2" value="IDA" style="ellipse;whiteSpace=wrap;html=1;fillColor=#dae8fc;strokeColor=#6c8ebf;gradientColor=#7ea6e0;fontStyle=1" parent="1" vertex="1">
          <mxGeometry x="4270" y="944" width="30" height="26" as="geometry" />
        </mxCell>
        <mxCell id="AR_CazgQhvr1JdZTIASA-2" style="edgeStyle=orthogonalEdgeStyle;rounded=0;orthogonalLoop=1;jettySize=auto;html=1;exitX=0.5;exitY=0;exitDx=0;exitDy=0;entryX=0.5;entryY=0;entryDx=0;entryDy=0;strokeColor=#00CC00;fontStyle=1;strokeWidth=2;" parent="1" source="AR_CazgQhvr1JdZTIASA-1" target="dDX4s_7uVApJEGBFn1xV-20" edge="1">
          <mxGeometry relative="1" as="geometry" />
        </mxCell>
        <mxCell id="AR_CazgQhvr1JdZTIASA-1" value="RECEIVES MEMORABLE SECRET CREATION FAILURE NOTIFICATION ON EMAIL/PHONE" style="rounded=0;whiteSpace=wrap;html=1;fontStyle=1;strokeWidth=2;fontSize=12;" parent="1" vertex="1">
          <mxGeometry x="4020" y="235" width="160" height="75" as="geometry" />
        </mxCell>
        <mxCell id="dDX4s_7uVApJEGBFn1xV-47" style="edgeStyle=orthogonalEdgeStyle;rounded=0;orthogonalLoop=1;jettySize=auto;html=1;exitX=0.5;exitY=1;exitDx=0;exitDy=0;fontStyle=1;strokeWidth=2;strokeColor=#00CC00;" parent="1" source="AR_CazgQhvr1JdZTIASA-6" target="tqsLIWrqmnTAexxu9vTC-11" edge="1">
          <mxGeometry relative="1" as="geometry" />
        </mxCell>
        <mxCell id="tqsLIWrqmnTAexxu9vTC-5" style="edgeStyle=orthogonalEdgeStyle;rounded=0;orthogonalLoop=1;jettySize=auto;html=1;exitX=1;exitY=0.5;exitDx=0;exitDy=0;strokeColor=#00CC00;fontStyle=1;strokeWidth=2;" parent="1" source="tqsLIWrqmnTAexxu9vTC-3" target="dDX4s_7uVApJEGBFn1xV-229" edge="1">
          <mxGeometry relative="1" as="geometry" />
        </mxCell>
        <mxCell id="tqsLIWrqmnTAexxu9vTC-3" value="2FA USING (ONE)&lt;br style=&quot;border-color: var(--border-color); font-size: 11px;&quot;&gt;&lt;span style=&quot;font-size: 11px;&quot;&gt;OTP:&amp;nbsp;&lt;/span&gt;&lt;u style=&quot;border-color: var(--border-color); font-size: 11px;&quot;&gt;AU.2.C&lt;/u&gt;&lt;br style=&quot;border-color: var(--border-color); font-size: 11px;&quot;&gt;&lt;span style=&quot;font-size: 11px;&quot;&gt;PIN:&amp;nbsp;&lt;/span&gt;&lt;u style=&quot;border-color: var(--border-color); font-size: 11px;&quot;&gt;AU.1.F&lt;/u&gt;" style="rounded=0;whiteSpace=wrap;html=1;fontStyle=1;strokeWidth=2;" parent="1" vertex="1">
          <mxGeometry x="3090" y="310" width="140" height="66.25" as="geometry" />
        </mxCell>
        <mxCell id="tqsLIWrqmnTAexxu9vTC-4" value="AC" style="ellipse;whiteSpace=wrap;html=1;fillColor=#dae8fc;strokeColor=#6c8ebf;gradientColor=#7ea6e0;fontStyle=1" parent="1" vertex="1">
          <mxGeometry x="3210" y="854" width="30" height="26" as="geometry" />
        </mxCell>
        <mxCell id="dDX4s_7uVApJEGBFn1xV-243" value="" style="group" parent="1" vertex="1" connectable="0">
          <mxGeometry x="2600" y="421" width="2290" height="40" as="geometry" />
        </mxCell>
        <mxCell id="dDX4s_7uVApJEGBFn1xV-244" value="&lt;b&gt;SINGLE/ DUAL FIREWALL&lt;/b&gt;" style="shape=label;whiteSpace=wrap;html=1;boundedLbl=1;backgroundOutline=1;darkOpacity=0.05;darkOpacity2=0.1;fillColor=#e51400;fontColor=#ffffff;strokeColor=#B20000;rounded=0;" parent="dDX4s_7uVApJEGBFn1xV-243" vertex="1">
          <mxGeometry width="2290" height="20" as="geometry" />
        </mxCell>
        <mxCell id="dDX4s_7uVApJEGBFn1xV-245" value="&lt;b&gt;IDS, IPS, HONEYPOT&lt;/b&gt;" style="shape=label;whiteSpace=wrap;html=1;boundedLbl=1;backgroundOutline=1;darkOpacity=0.05;darkOpacity2=0.1;fillColor=#f0a30a;strokeColor=#BD7000;rounded=0;fontColor=#000000;" parent="dDX4s_7uVApJEGBFn1xV-243" vertex="1">
          <mxGeometry y="20" width="2290" height="20" as="geometry" />
        </mxCell>
        <mxCell id="Zl2qFdGlKUmVQ_tUsNpZ-1" value="API/ HTTPS (SSL/TLS)" style="shape=label;whiteSpace=wrap;html=1;boundedLbl=1;backgroundOutline=1;darkOpacity=0.05;darkOpacity2=0.1;fillColor=#f8cecc;strokeColor=#b85450;rounded=0;fontStyle=1" parent="1" vertex="1">
          <mxGeometry x="2600" y="399.75" width="2290" height="20" as="geometry" />
        </mxCell>
        <mxCell id="tqsLIWrqmnTAexxu9vTC-7" value="NOTIFICATION GENERATOR" style="rounded=0;whiteSpace=wrap;html=1;fontStyle=1;strokeWidth=2;fontSize=11;fillColor=default;strokeColor=default;" parent="1" vertex="1">
          <mxGeometry x="3300" y="770" width="100" height="37" as="geometry" />
        </mxCell>
        <mxCell id="tqsLIWrqmnTAexxu9vTC-9" value="&lt;div style=&quot;text-align: left;&quot;&gt;&lt;br&gt;&lt;/div&gt;" style="text;html=1;align=center;verticalAlign=middle;resizable=0;points=[];autosize=1;strokeColor=none;fillColor=none;fontSize=14;" parent="1" vertex="1">
          <mxGeometry x="2715" y="1340" width="20" height="30" as="geometry" />
        </mxCell>
        <mxCell id="tqsLIWrqmnTAexxu9vTC-10" value="" style="group" parent="1" vertex="1" connectable="0">
          <mxGeometry x="3930" y="587.08" width="150" height="78" as="geometry" />
        </mxCell>
        <mxCell id="AR_CazgQhvr1JdZTIASA-6" value="MASK &amp;amp; ENCRYPT MEMORABLE SECRET&amp;nbsp;" style="rounded=0;whiteSpace=wrap;html=1;fontStyle=1;strokeWidth=2;" parent="tqsLIWrqmnTAexxu9vTC-10" vertex="1">
          <mxGeometry x="30" y="9" width="120" height="60" as="geometry" />
        </mxCell>
        <mxCell id="AR_CazgQhvr1JdZTIASA-3" value="KM" style="ellipse;whiteSpace=wrap;html=1;fillColor=#dae8fc;strokeColor=#6c8ebf;gradientColor=#7ea6e0;fontStyle=1" parent="tqsLIWrqmnTAexxu9vTC-10" vertex="1">
          <mxGeometry width="30" height="26" as="geometry" />
        </mxCell>
        <mxCell id="AR_CazgQhvr1JdZTIASA-4" value="HSM" style="ellipse;whiteSpace=wrap;html=1;fillColor=#dae8fc;strokeColor=#6c8ebf;gradientColor=#7ea6e0;fontStyle=1" parent="tqsLIWrqmnTAexxu9vTC-10" vertex="1">
          <mxGeometry y="26" width="30" height="26" as="geometry" />
        </mxCell>
        <mxCell id="AR_CazgQhvr1JdZTIASA-5" value="CA" style="ellipse;whiteSpace=wrap;html=1;fillColor=#dae8fc;strokeColor=#6c8ebf;gradientColor=#7ea6e0;fontStyle=1;container=0;" parent="tqsLIWrqmnTAexxu9vTC-10" vertex="1">
          <mxGeometry y="52" width="30" height="26" as="geometry" />
        </mxCell>
        <mxCell id="4t_X0Ifkj1XRjPcLYBlQ-1" style="edgeStyle=orthogonalEdgeStyle;rounded=0;orthogonalLoop=1;jettySize=auto;html=1;exitX=0.5;exitY=1;exitDx=0;exitDy=0;entryX=0.5;entryY=0;entryDx=0;entryDy=0;strokeColor=#FF0000;fontStyle=1;strokeWidth=2;" parent="1" source="Zl2qFdGlKUmVQ_tUsNpZ-7" target="dDX4s_7uVApJEGBFn1xV-38" edge="1">
          <mxGeometry relative="1" as="geometry" />
        </mxCell>
        <mxCell id="tqsLIWrqmnTAexxu9vTC-11" value="IF &lt;br&gt;MEM. SEC. CRITERIA*&lt;br&gt;MATCH" style="rounded=0;whiteSpace=wrap;html=1;fontStyle=1;strokeWidth=2;shape=rhombus;perimeter=rhombusPerimeter;" parent="1" vertex="1">
          <mxGeometry x="3966" y="792.1600000000001" width="110" height="83.92" as="geometry" />
        </mxCell>
        <mxCell id="tqsLIWrqmnTAexxu9vTC-12" value="" style="edgeStyle=orthogonalEdgeStyle;rounded=0;orthogonalLoop=1;jettySize=auto;html=1;exitX=0.5;exitY=1;exitDx=0;exitDy=0;entryX=0.5;entryY=0;entryDx=0;entryDy=0;entryPerimeter=0;strokeColor=#00CC00;fontStyle=1;strokeWidth=2;" parent="1" source="h02XlExmIwclNv6doQsY-1" target="dDX4s_7uVApJEGBFn1xV-65" edge="1">
          <mxGeometry relative="1" as="geometry" />
        </mxCell>
        <mxCell id="tqsLIWrqmnTAexxu9vTC-18" value="" style="group" parent="1" vertex="1" connectable="0">
          <mxGeometry x="2600" y="690" width="2290" height="60" as="geometry" />
        </mxCell>
        <mxCell id="dDX4s_7uVApJEGBFn1xV-88" value="" style="group" parent="tqsLIWrqmnTAexxu9vTC-18" vertex="1" connectable="0">
          <mxGeometry y="20" width="2289.0952192809164" height="40" as="geometry" />
        </mxCell>
        <mxCell id="dDX4s_7uVApJEGBFn1xV-89" value="&lt;b&gt;SINGLE/ DUAL FIREWALL&lt;/b&gt;" style="shape=label;whiteSpace=wrap;html=1;boundedLbl=1;backgroundOutline=1;darkOpacity=0.05;darkOpacity2=0.1;fillColor=#e51400;fontColor=#ffffff;strokeColor=#B20000;rounded=0;" parent="dDX4s_7uVApJEGBFn1xV-88" vertex="1">
          <mxGeometry width="2289.0952192809164" height="20" as="geometry" />
        </mxCell>
        <mxCell id="dDX4s_7uVApJEGBFn1xV-90" value="&lt;b&gt;IDS, IPS, HONEYPOT&lt;/b&gt;" style="shape=label;whiteSpace=wrap;html=1;boundedLbl=1;backgroundOutline=1;darkOpacity=0.05;darkOpacity2=0.1;fillColor=#f0a30a;strokeColor=#BD7000;rounded=0;fontColor=#000000;" parent="dDX4s_7uVApJEGBFn1xV-88" vertex="1">
          <mxGeometry y="20" width="2289.0952192809164" height="20" as="geometry" />
        </mxCell>
        <mxCell id="4kefHeuUkW_7r6SL0RT1-1" value="API/ HTTPS (SSL/TLS)" style="shape=label;whiteSpace=wrap;html=1;boundedLbl=1;backgroundOutline=1;darkOpacity=0.05;darkOpacity2=0.1;fillColor=#f8cecc;strokeColor=#b85450;rounded=0;fontStyle=1" parent="tqsLIWrqmnTAexxu9vTC-18" vertex="1">
          <mxGeometry x="0.9047807190833662" width="2289.0952192809164" height="20" as="geometry" />
        </mxCell>
        <mxCell id="tqsLIWrqmnTAexxu9vTC-19" value="&lt;div style=&quot;font-size: 13px;&quot;&gt;&lt;b style=&quot;font-size: 13px;&quot;&gt;*MEMORABLE SECRET CRITERIA&lt;/b&gt;&lt;/div&gt;&lt;div style=&quot;font-size: 13px;&quot;&gt;a. Should be at least 6 characters in length.&lt;/div&gt;&lt;div style=&quot;font-size: 13px;&quot;&gt;b. Should be at most 25 characters in length.&lt;/div&gt;&lt;div style=&quot;font-size: 13px;&quot;&gt;c. All printing ASCII characters as well as the space character should be acceptable.&lt;/div&gt;&lt;div style=&quot;font-size: 13px;&quot;&gt;d. Unicode characters should be acceptable as well.&lt;/div&gt;&lt;div style=&quot;font-size: 13px;&quot;&gt;e. If Unicode characters are accepted in memorable secret, the administrator should apply the normalisation Process for stabilized strings using either the NDKC or NFKD normalisation. (NIST SP 800 63B)&lt;/div&gt;&lt;div style=&quot;font-size: 13px;&quot;&gt;f. Should not have any series of three consecutive characters.&lt;/div&gt;&lt;div style=&quot;font-size: 13px;&quot;&gt;g. Should not have any consecutive space.&lt;/div&gt;&lt;div style=&quot;font-size: 13px;&quot;&gt;h. Should be different from UID and password.&lt;/div&gt;&lt;div style=&quot;font-size: 13px;&quot;&gt;I. Should not be same as last three memorable secret.&lt;/div&gt;&lt;div style=&quot;font-size: 13px;&quot;&gt;&lt;br style=&quot;font-size: 13px;&quot;&gt;&lt;/div&gt;" style="text;html=1;align=left;verticalAlign=middle;resizable=0;points=[];autosize=1;strokeColor=none;fillColor=none;fontSize=13;" parent="1" vertex="1">
          <mxGeometry x="2600" y="1280" width="1200" height="190" as="geometry" />
        </mxCell>
        <mxCell id="h02XlExmIwclNv6doQsY-2" value="RESET COUNTER" style="edgeStyle=orthogonalEdgeStyle;rounded=0;orthogonalLoop=1;jettySize=auto;html=1;exitX=1;exitY=0.5;exitDx=0;exitDy=0;entryX=0.5;entryY=0;entryDx=0;entryDy=0;entryPerimeter=0;strokeColor=#00CC00;fontStyle=1;strokeWidth=2;jumpStyle=arc;jumpSize=11;" parent="1" source="tqsLIWrqmnTAexxu9vTC-11" target="h02XlExmIwclNv6doQsY-1" edge="1">
          <mxGeometry relative="1" as="geometry">
            <mxPoint x="4076" y="834" as="sourcePoint" />
            <mxPoint x="4330" y="921" as="targetPoint" />
          </mxGeometry>
        </mxCell>
        <mxCell id="h02XlExmIwclNv6doQsY-1" value="BIND MEMORABLE SECRET AUTHENTICATOR" style="rounded=0;whiteSpace=wrap;html=1;fontStyle=1;strokeWidth=2;" parent="1" vertex="1">
          <mxGeometry x="4260" y="853" width="140" height="42.08" as="geometry" />
        </mxCell>
        <mxCell id="dd5iElCpkEljh6VtGstQ-1" value="" style="edgeStyle=orthogonalEdgeStyle;rounded=0;orthogonalLoop=1;jettySize=auto;html=1;exitX=0.5;exitY=1;exitDx=0;exitDy=0;entryX=0.5;entryY=0;entryDx=0;entryDy=0;strokeColor=#FF0000;fontStyle=1;strokeWidth=2;" parent="1" source="tqsLIWrqmnTAexxu9vTC-11" target="Zl2qFdGlKUmVQ_tUsNpZ-7" edge="1">
          <mxGeometry relative="1" as="geometry">
            <mxPoint x="4021" y="876" as="sourcePoint" />
            <mxPoint x="4021" y="1110" as="targetPoint" />
          </mxGeometry>
        </mxCell>
        <mxCell id="Zl2qFdGlKUmVQ_tUsNpZ-7" value="EXCEPTION AND ERROR HANDLING (COUNTER)" style="rounded=0;whiteSpace=wrap;html=1;fontStyle=1;strokeWidth=2;fontSize=11;shape=label;boundedLbl=1;backgroundOutline=1;size=9.769240159254764;" parent="1" vertex="1">
          <mxGeometry x="3949.75" y="1026" width="142.5" height="31.92" as="geometry" />
        </mxCell>
        <mxCell id="7sHBeP9JzrJGmjuqZxM0-1" value="&lt;div style=&quot;font-size: 18px;&quot;&gt;&lt;font style=&quot;font-size: 18px;&quot;&gt;&lt;b style=&quot;font-size: 18px;&quot;&gt;Purpose:&lt;/b&gt;&lt;/font&gt;&lt;/div&gt;&lt;div style=&quot;font-size: 18px;&quot;&gt;This SOP d&lt;span style=&quot;background-color: rgb(255, 255, 255); color: rgb(13, 13, 13); font-size: 18px; white-space-collapse: preserve;&quot;&gt;etails the procedure for creating a memorable secret for authentication purposes.&lt;/span&gt;&lt;br style=&quot;font-size: 18px;&quot;&gt;&lt;/div&gt;" style="whiteSpace=wrap;html=1;align=left;rounded=0;strokeWidth=2;verticalAlign=middle;fontFamily=Helvetica;fontSize=18;fontStyle=0;" vertex="1" parent="1">
          <mxGeometry x="2570" y="50" width="2350" height="60" as="geometry" />
        </mxCell>
      </root>
    </mxGraphModel>
  </diagram>
</mxfile>
